<mxfile host="app.diagrams.net" modified="2022-12-21T06:42:50.849Z" agent="5.0 (Windows)" etag="GaINs8eccNjACEqrfC49" version="20.7.4" type="github">
  <diagram id="JVeQGV50bSFnjZMCQQE2" name="Page-1">
    <mxGraphModel dx="1454" dy="712" grid="1" gridSize="10" guides="1" tooltips="1" connect="1" arrows="1" fold="1" page="1" pageScale="1" pageWidth="850" pageHeight="1100" math="0" shadow="0">
      <root>
        <mxCell id="0" />
        <mxCell id="1" parent="0" />
        <mxCell id="fcquz-dU36HKkGFn_NYE-8" style="edgeStyle=orthogonalEdgeStyle;rounded=0;orthogonalLoop=1;jettySize=auto;html=1;exitX=1;exitY=0.3333333333333333;exitDx=0;exitDy=0;exitPerimeter=0;" parent="1" source="fcquz-dU36HKkGFn_NYE-6" edge="1">
          <mxGeometry relative="1" as="geometry">
            <mxPoint x="270" y="380" as="targetPoint" />
          </mxGeometry>
        </mxCell>
        <mxCell id="fcquz-dU36HKkGFn_NYE-6" value="Actor" style="shape=umlActor;verticalLabelPosition=bottom;verticalAlign=top;html=1;outlineConnect=0;" parent="1" vertex="1">
          <mxGeometry x="150" y="360" width="30" height="60" as="geometry" />
        </mxCell>
        <mxCell id="fcquz-dU36HKkGFn_NYE-9" style="edgeStyle=orthogonalEdgeStyle;rounded=0;orthogonalLoop=1;jettySize=auto;html=1;exitX=1;exitY=0.5;exitDx=0;exitDy=0;" parent="1" source="fcquz-dU36HKkGFn_NYE-7" edge="1">
          <mxGeometry relative="1" as="geometry">
            <mxPoint x="450" y="390" as="targetPoint" />
          </mxGeometry>
        </mxCell>
        <mxCell id="fcquz-dU36HKkGFn_NYE-7" value="&lt;div&gt;Browser&lt;/div&gt;&lt;div&gt;&lt;br&gt;&lt;/div&gt;" style="rounded=0;whiteSpace=wrap;html=1;" parent="1" vertex="1">
          <mxGeometry x="280" y="360" width="120" height="60" as="geometry" />
        </mxCell>
        <mxCell id="fcquz-dU36HKkGFn_NYE-12" style="edgeStyle=orthogonalEdgeStyle;rounded=0;orthogonalLoop=1;jettySize=auto;html=1;exitX=0.5;exitY=1;exitDx=0;exitDy=0;" parent="1" source="fcquz-dU36HKkGFn_NYE-10" target="fcquz-dU36HKkGFn_NYE-11" edge="1">
          <mxGeometry relative="1" as="geometry" />
        </mxCell>
        <mxCell id="fcquz-dU36HKkGFn_NYE-10" value="API Gateway" style="rounded=0;whiteSpace=wrap;html=1;" parent="1" vertex="1">
          <mxGeometry x="450" y="360" width="120" height="60" as="geometry" />
        </mxCell>
        <mxCell id="fcquz-dU36HKkGFn_NYE-14" style="edgeStyle=orthogonalEdgeStyle;rounded=0;orthogonalLoop=1;jettySize=auto;html=1;exitX=0.5;exitY=1;exitDx=0;exitDy=0;" parent="1" source="fcquz-dU36HKkGFn_NYE-11" target="fcquz-dU36HKkGFn_NYE-13" edge="1">
          <mxGeometry relative="1" as="geometry" />
        </mxCell>
        <mxCell id="fcquz-dU36HKkGFn_NYE-16" style="edgeStyle=orthogonalEdgeStyle;rounded=0;orthogonalLoop=1;jettySize=auto;html=1;" parent="1" source="fcquz-dU36HKkGFn_NYE-11" target="fcquz-dU36HKkGFn_NYE-15" edge="1">
          <mxGeometry relative="1" as="geometry" />
        </mxCell>
        <mxCell id="fcquz-dU36HKkGFn_NYE-11" value="Lambda" style="ellipse;whiteSpace=wrap;html=1;aspect=fixed;" parent="1" vertex="1">
          <mxGeometry x="470" y="470" width="80" height="80" as="geometry" />
        </mxCell>
        <mxCell id="fcquz-dU36HKkGFn_NYE-13" value="Dynamo DB" style="shape=cylinder;whiteSpace=wrap;html=1;boundedLbl=1;backgroundOutline=1;" parent="1" vertex="1">
          <mxGeometry x="470" y="600" width="80" height="80" as="geometry" />
        </mxCell>
        <mxCell id="fcquz-dU36HKkGFn_NYE-15" value="S3 Bucket" style="shape=cylinder;whiteSpace=wrap;html=1;boundedLbl=1;backgroundOutline=1;" parent="1" vertex="1">
          <mxGeometry x="590" y="600" width="80" height="80" as="geometry" />
        </mxCell>
        <mxCell id="Hd83eVn2M9fP15iX-xxs-1" value="“As a vehicle fleet manager, I want to register an existing IoT connected vehicle to bring it into service.”" style="text;whiteSpace=wrap;html=1;fontSize=14;" vertex="1" parent="1">
          <mxGeometry x="40" y="10" width="670" height="50" as="geometry" />
        </mxCell>
        <mxCell id="Hd83eVn2M9fP15iX-xxs-2" value="" style="shape=image;verticalLabelPosition=bottom;labelBackgroundColor=default;verticalAlign=top;aspect=fixed;imageAspect=0;image=data:image/png,iVBORw0KGgoAAAANSUhEUgAAAggAAADmCAYAAACwLX24AAAgAElEQVR4XuxdB2AU1RY9pJFGSOi9iIII2BBFARVUwEIRULH3gigdQUSqFEHhIzbsYFeUooL0Ik2QqiLSBKR3Aunt3/NmZncTEklgSdv7vvlkd9+8mTlvsu+8e8+9t0iaNGhTBBQBRUARUAQUAUXAA4EiShD0eVAEFAFFQBFQBBSBjAgoQdBnQhFQBBQBRUARUAROQ0AJgj4UioAioAgoAoqAIqAEQZ8BRUARUAQUAUVAETgzAmpBODNG2kMRUAQUAUVAEfA5BJQg+NyU6w0rAoqAIqAIKAJnRkAJwpkx0h6KgCKgCCgCioDPIaAEweemXG9YEVAEFAFFQBE4MwJKEM6MkfZQBBQBRUARUAR8DgElCD435XrDioAioAgoAorAmRFQgnBmjLSHIqAIKAKKgCLgcwgoQfC5KdcbVgQUAUVAEVAEzoyAEoQzY6Q9zoBAWkoKkM9rfhUJCNB5VAQUAUVAEcgBAkoQcgCWds0cgX9bd0Dyjp0oUsQPKCL/8Yf/k5fmN3nD+uFnfva/8oKfZvjMdbzdj51NHz+OaI9rv5e+r/W51d9jXDmOzW/KFJ0+RUARUAQUgRwgoAQhB2Bp16wIQnskkSAYMmBYgSEHFkmwF3Z7kbcoAz9nB/sz9rF/h+mfnkzwCD8u9B4kIT0RcAiBc273eA65UIKgT68ioAgoAjlDQAlCzvDS3pkgsKuVEIR/dthkwN7nm0U/C0uCtdE3LMIs/Oa1RSYsciFWBrtPOouDp3XAmA/IGTysFuZzmyR49pVx/adO1blTBBQBRUARyAECShByAJZ2zRyBnbe3EwuCEATXIi87/gyWBGsxt/wPbneD9bsnQTA2BWNcOJ0kWO4KEgjnOJ7Hg1h4uBZMXw/LRMD0aTp9ioAioAgoAjlAQAlCDsDSrpkjsOO2tkIQdrm1BfbOPqO7wU0SbIuBxyLuIgn2zt+4E4zb4XR3gzEaOETD1jhYegRP/QFHpN7Bei/wh+k6fYqAIqAIKAI5QEAJQg7A0q5ZEIRbSRBEg5DOTeAs7hmFi27dgcsi4LIqWG4DFzFwSIJlZHAJHE/TJDhEwuWuyEAg5H0lCPr0KgKKgCKQMwSUIOQML+2dCQL/0IKwXVwMXMT9qQHwcAU4wsV00Q0WSUjnbuBLChfN27b1wEUQrPHSkYR00Q0elgNbm+COZLBcFUE//aBzpwgoAoqAIpADBJQg5AAs7Zo5AttbtrGjGJxFnP5/a2G2XAW2WNEJcbRdBBaR8PzckzTYpMC2SjiahHQEwlOPIP3MGV0WCE+tAhA84yedPkVAEVAEFIEcIKAEIQdgadfMEdjWorVFEEgG0qw+fiQIFjPIMrrBrRuwcyPIMf5lSsMvNNRFHCBJmFL3H0CR1FR3lIMhAdYxLitEuhBIT0GkZZFQgqBPryKgCCgCOUNACULO8NLemSCwrXlrJDphjjZJsKIYHf2BHVHguBsMgWAHa/E2mgJaACKLI6JLZwRedBHSTp2yziQui5iPJyJl7Tq3RSKN46UnCSZCwiYJ6a0MliUiZOYMnTtFQBFQBBSBHCCgBCEHYGnXzBHY2ryV0SCkCy20jAe2i8FDU2C967IAWMJGwybgL5aD0LvbI6h2bUQPegVISUJIm1YIuqo+Tr06GoiJTWeRsHQGGSwJtlWB7gaXBUM6hv6sBEGfX0VAEVAEcoKAEoScoKV9M0Vgyy02QfAMNZSdv+NuMHoE5zM7U6JLf2BnXAy5oQlCW9yMmG+/Q2SfXjg+/FWkbPpbrApRiBw1DHGff4XEJUvdBCFDCKQhHY6bgdEM6T4vgrBZM3X2FAFFQBFQBHKAgBKEHIClXTNHYMvNdyCRUQxODgOPCAPLWuAhRrR1CVYiJet9/1IlUWrkUPhFRCB2huz0ExJQtH59nBgyDEhMRGjb1giqfyVOvjYWOHXSsgwY8aOTTMk9vosoOOe0zxE2WwmCPr+KgCKgCOQEASUIOUFL+2aKwOZmQhCcTIq2a8GkTXYiEES46GgSThMuBgag+EMPIOiiCxE3fyHC770bJ0aMRuTQAYiZ8CESli1DkeAQRA0fjLhZc5A0d76tNXDrECwS4uFucBIwedSBCJ/9s86eIqAIKAKKQA4QUIKQA7C0a+YI/N3sdkuk6GEpsAIbbbO/vxXd4BYuuvMkFL20Hkr1ewGHBwxFyr+7EdW7O1Kjo5G8bz9CrmmA46+MAGJjEXLLTQgVPcLxrj3NRVjuBFv8SEsCy017ChcpfGQfO3lSsTmzdPoUAUVAEVAEcoCAEoQcgOXLXdO4AJudup2xyAOMTU1vExfDPx6ZFC2Tv1mbXTt7z2RHzsIu4kHRHkQ99TgOdOmBtBPRKHppXZTo1wdHBw1BZJfncOqbb5G4dAX8oiJRvE9PJC5bgYQZljXAU4ToEAbn/Yz1HiLmzfbl6dN7VwQUAUUgxwgoQcgxZL55wJYtW/DWW2+hd+/eqFChQjqi8JeLIND67y8rd5o7SsFasV3kwaEXfiJiDL2+CfzCwxDe/GbEr1yFU5OnoEhQICI7P420pGSk7t2LkKY34OhLA8WKEIdg+T38gXtxvF9/pB055rZQeGRutHQNp0c3FFeC4JsPrt61IqAInDUCShDOGjrfOjBWzPxPPPEEZs6ciWHDhuGhhx5CeHi4AeGvG1sakaKLCBjDgfzPpF02kgHrHQ+Tf0DZ0qj00XtIPXEcJ774GpEPP4iDvV9Eyt79CKxeFWXGjsKx0WMQIe/HTJmOhPkLJJlBCEqIFiFh/iLEz7BEh079Byu6keLFTKpAyvuR8+f41oTp3SoCioAicI4IKEE4RwB96XC6GTZu3IhHH30Uhw4dwqRJk3Dttddis4liEBeD5U9IJ0i0uIGzq7dJQtGiKPnUYwisUF4sBkGSQ2E7AqtURtK/exD9wceAeDNK9OwCv7AQsSz8hvD27XD05UFIO3oMQZddiuLPd8LR7r2NNsGte7DzHjiVHj0sCbyEqIVzfWmq9F4VAUVAEThnBJQgnDOE7gG4WO7atcuLI+bPoRIkDPHIkSPw9/dHixYtMPhANPwPHLRM+9a+Pr2I0CEO/FysCGENr0GZF3tib5deCKxYASVlwacVIaJ9Wxx9fRySNm9BQJkyKD1yCKI/+RTFJLIhTqIX4n6QEMjgYEQNeBHJf29B7Odfuq0IthvDnCqTUtFKEPLns6RXpQgoAvkXASUIXpwb7ma3bt3qxRHz31CpUhNhyZIlePLJJ1GzZk1MnToViY8/586DYLwKnnkP7EyH9nsBJSJRbuCLiN/wB45P+gJ+suCXe+M1xC1cjIDKlQ3JOCYkgX6J4qI3KFq3LuIWLUZYy+Y4JsmTUoWYBEtmxYjOnXCsV1+kHT/mdm14kgQTYul2N5RYJOGR2hQBRUARUASyjYAShGxDdeaOJAiO2v/MvQtej3379uG+++7Dpk2b8OGHH+KWW25BYGAg/ri+BRK3bbeIAUMazW+WUNDs6Fln0Q5BjOzYHsVubGKsB0hJRXDd2ig7uD8ODR6OtORklO7fB4eGjECK5FUIkARKpf/3OqIlH0J42zuQIO6GmMnfo4hoESJf6IGUnTsRK5YHAd0iA3aEhRPd4CoYJddScrEShIL3xOkVKwKKQF4ioATBi+gXZoKwZs0aNG7cGC+99BI6deqEEiVKuJD7o8ktSNhmhTk67gU7/QDt/bbroQiCqlVBpVdfwaG3JiBOwhXFRyHWhH5IOXYMR8e/gyIB/oh64jEE1bwQh/sPApKTEN7qDoTd0gyxs+ci/M7WONz9BSAuFkH1JBxyYH8c6dELqXv2uSIa3CmWnVwLFkkptVhEjtoUAUVAEVAEso2AEoRsQ3XmjoWZICQlJeHw4cMoX778aUD80fgWxIsFwZW8yEmFbFsSSBL8QoJRQchA6vETOPTG2yaFcliT61Di4QdwQKwHKQf2m2RKAZUqovzrI3FEIhgS1m0w+Q/KjR6BmLnzULROHSTt+henJn0mlgohE/0l6mH3bsR8+oVYI5KNpcKWO6RP7yzWhVK/KEE48xOsPRQBRUARcCOgBMGLT0NhJgj/BdMGIQgJW4UgkBDYoY0musCIFS1XQ7HrG6Fs12fxb4++SNq9BwHFi6Pye+Nx4rupiP5+up27QEaQ44vf2QZhN16Pg337A/HxCL+9JcKa34TYWXMRIRaGwz16G6tBgFgkSgzqjxOiTUh2EjWZC3Wf10mYVHrpIi/OtA6lCCgCikDhR0AJghfn2GcJQiNJdEQLghXo6CIFjlgxoFQJVHv3DRz9/GtEMxJBdvSR7VqjxAMdsef5nkizyzhTM8DmFxaGCuNfx/GPJiJGXAvUF5QdN1pCHlcj6OJaSNq2Dac++1Le90ekpGZOE5fDybffk3OLFsEOb3TlZLCFi2WWKUHw4qOuQykCioAPIKAEwYuT7KsEYX3DmxD/jxAE22pgFnkjVmTiIn+UffYJhNSpjd29+kmlxkT4FY9A9U8/gH9YKJIPHzULu6uJtSH50EHErVptrAiH+g2S2gwnJOtiY0Q9+iCOvvM+Sj73DA69PFgyLUpSpYtqIKpnV0SLhiHp783GemDXiUoX3VB2+WIvzrQOpQgoAopA4UdACYIX59hXCcI6EgRaEEwOAju0kEu1uAtCZMdfaWBf7B0xBvF//mnlSfAPQHCNavALDbV3/E6dBin9HCrZEp99Eien/YhwKdAUK1kTT03/EUWKhaMUIxcOHoJ/6ZJCGk7ixJvvmvGKP/uUaBxCED1WwiMtG4S5FqsWhBVyWW7FL16caR1KEVAEFIHCj4ASBC/Osa8ShLXXNkX8FluDYMINLbGgf3BRVH9zDGL/2IiDdAGksqQj3QCWLsEVlmgSG1mvubBTvFimRxcc//wrRN7TAXs6ixtBIh1C6l+B0oNeMhEPJYQUHHhOKj8KYQgSK0KJl1/E0YFWRUgr2tGu5mh+LYLyvy7x4kzrUIqAIqAIFH4ElCB4cY59lSCsubopEiRdshXkKOSA/ECiDIrfdAMuGPsqDn72FVIOHbFyJKSaTmZ772RdtA+0SIK4GxjxUOLB+3Hsy28QXPtipEpK5cSNm1AkOAgRd7ZFzDyJSAgIQFDFcibSgaKHULE2pEqUxdEBQwCJuLC0EE6IJVB+5VIvzrQOpQgoAopA4UdACYIX59h3CcKNiGcUg20BMDQhMADFrmuIEpLgiCGNNhtITwoMV7DyM5tdvy1FMONIjYZYSYzEBEyRd7czIZCmn4yb8NffkjRpNSLuvcvkUjBjSA6F1P0HcfKLr+R8CcI/nHEtklBBCYIXn3QdShFQBHwBASUIXpxlXyUIq6++QVwMLNZEy4GTSZHZE7mq21kU7egC7upJBKx6CSQG8n9pdu0G2zXAz4ySwdYPWNoGq4851vN9V84FZzwnF0L6dM8VV6kFwYuPug6lCCgCPoCAEgQvTrLPEoSrbkDc1m0eC7e9WJsoBg/hoqtWgp0jwdRLsCbApUEwv2cgB57HWYYBK5TSkA+bOBgDg1vHYPELRjRYY1X6bZkXZ1qHUgQUAUWg8COgBMGLc+yrBOG3+tebKAZrobeVCLaFwDgRMpAE08+JdrB1Ai6SYP2SbnG3vAUeRMDWL7gsCelIgiN4NIzB5faovFpSO2tTBBQBRUARyDYCShCyDdWZO/oqQVglBCFui2VBcIUWckG33Q3Wgu+QAkua6GcnK7ASG9kkwqIYGSwRjjXBIQnmYMuKYD6yhYhmDEf26LYkWHylCKqsUYJw5idYeygCioAi4EZACYIXnwafJQhXWgTBeBRc4kBn4XcWbVtn4JEnwUQycGF3LApWV8ta4OFWIJlwhUQ6ugXPfAtOtILnuc0YDnkAqqz91YszrUMpAoqAIlD4EVCC4MU59lWCsPKKJm4NglnhmYPA0gQYM7/jErA1A9bbNjEQK4PzyrEkWEPYVgDHRWFCIE1Xl7vBiZow73uQBDOyp0ZBPq66TgmCFx91HUoRUAR8AAElCF6cZF8lCL9eLgRhy1YxCFiKQ6tAkyNA9LQGcN228yQY0uBYD6yDHEGhcQu4SIJDCDwSK3loCzwzN7pIgsUibGJiHVdtvRIELz7qOpQioAj4AAJKELw4yb5KEFZc3hhxm4UgOBoAx7Tvem2TAQ/hoinM5LIsyGLub8wAp7sbXJYES8NgEQdb05Ah3NGyMHhoGIx1wnJ7VFu/yoszrUMpAoqAIlD4EVCC4MU59nWCYFkPHMuAE71gaxCM1sAWLnJ3n0Yzg6RdlnoNnu4Gy6Zgj2ObElxaAisswX0OlyXBIgzmM4dAOPoGm6RcsOE3L860DqUIKAKKQOFHQAmCF+fYVwmCFyHUoRQBRUARUATyCQJKELw4EUoQvAimDqUIKAKKgCKQpwgoQfAi/EoQvAimDqUIKAKKgCKQpwgoQfAi/EoQvAimDqUIKAKKgCKQpwgoQfAi/EoQvAimDqUIKAKKgCKQpwgoQfAi/EoQvAimDqUIKAKKgCKQpwgoQfAi/EoQvAimDqUIKAKKgCKQpwgoQfAi/L5EEJKSknD8+HGUKlUKaWlpOHz4MKKiohAYGJgO0ZSUFBw9ehSlS5c2/x45cgQVKlRAWFjYacgfPHgQJUqUQEBAwFnNyty5c3HllVciKCjIXFvFihXx+++/Y86cObj11ltxySWXnNW4epAioAgoAr6IgBIEL866LxGEKVOm4KGHHsLOnTvNYn/ZZZfhgw8+QOPGjfHMM88gOjoaX3zxBVauXIlevXph4MCBpn/58uVN/0WLFqVDfseOHahevTp++ukn3HbbbWc1K23btsXQoUOxd+9eTJ06FW+99RZuuOEGPP/88+a6SEy0KQKKgCKgCGQPASUI2cMpW718hSDQYnDnnXeifv36iIiIQJcuXdCnTx+UKVMGPXr0MDt1WhK4e+/WrZvZ1U/6dBIefOBBPPjgg8bi4O9vciubxtc9e/YELQinTp3C999/j8TERCxbtsy8xwW/Xbt2+PHHH1G5cmW0atXKEAlaL2gdaNmyJRo0aGCuiQSB17F9+3ZzDW3atMGgQYMMOaBF4fLLL8exY8ewZs0a3HTTTdmaV+2kCCgCioAvIqAEwYuz7isEgbv9u+66C99++63Z7a9evRr79u3Dww8/jE+FCHTq9Kwx8dNKcOmll5qFfcOGDYYssA939FzEnUYycNVVV2HWrFlmx8/FOzY2FvXq1cOkSZMwduxY43YgCaF1YsaMGWjUqBEeffRRXNfoOnR+tjOmT5+O/v37G4JAN8bXX3+Np59+Gq1bt8b777+PkydP4vXXX8fixYvxwgsvoEmTJoZ0aFMEFAFFQBHIHAElCF58MnyFILz66qtm8e/UqZOxCKxYsQI1a9ZErVq18Nxzzxk9Ai0E11xzjSEF69evR3BwMHbv3o0PP/wQEyZMAEkGtQJsPL5z585mcR8/fryxBNBd0Lx5c6xbtw7Dhw9HmvzvpX4v4YEHHkDXrl3N4r5gwQJccMEFuO+++3DLLbfghx9+SEcQ3nzzTdStWxfLly9HaGioISszZ850kRBaILQpAoqAIqAIKEE478+ArxAE7vbpVqCWgNaDuLg4jBkzxizq1Bx88803SE1NEbLwvFnkuXP3bHRNkCjQ3J+amooOHTqYhZw6BhIHHk+LQIsWLQxBGDlyJFJkPBIEEhKe2yEI1C3QxUCrxEcffZQlQYiMjDQaiV9/XSHWjRPGwmAqSmpTBBQBRUARyBQBtSB48cHwBYJAawDN/NyVs9G1QAEgF/Kff/4ZjzzyiLEg8KdKlSrGekBXQd8X+2L5suWIj483QsVp06aZ42n65+ckFnQ78PPatWtj3rx5aN++PdauXWsIAolEv379DEGgBYFkhJoCuid4HAnFuHHjjGWDn1OkSGuEY0EgQaAFg+daunSpRjR48bnXoRQBRaBwIqAEwYvz6gsEgYJCNt4rm/M6OzDGxMSAP1zQMzs+q/c8z+n8TvIxf/58lC1bFsWKFTPj8TOGVXoKIJ3r4mdbtmxBx44djUujaNGi2blk7aMIKAKKgM8ioATBi1PvCwTBi3Cd01DUKdBCUKlSpWyNs2TJEnTv3h2jRo1C06ZNs3WMdlIEFAFFwJcRUILgxdlXguBFMHUoRUARUAQUgTxFQAmCF+FXguBFMHUoRUARUAQUgTxFQAmCF+FXguBFMHUoRUARUAQUgTxFQAmCF+FXguBFMHUoRUARUAQUgTxFQAmCF+FXguBFMHUoRUARUAQUgTxFQAmCF+FXguBFMHUoRUARUAQUgTxFQAmCF+FXguBFMHUoRUARUAQUgTxFQAmCF+FXguBFMHUoRUARUAQUgTxFQAmCF+FXguBFMHUoRUARUAQUgTxFQAmCF+FXguBFMHUoRUARUAQUgTxFQAmCF+FXguBFMHUoRUARUAQUgTxFQAmCF+FXguBFMHUoRUARUAQUgTxFQAmCF+FXguBFMHUoRUARUAQUgTxFQAmCF+FXguBFMHUoRUARUAQUgTxFQAmCF+H3VYLw7513I3nHLvD+5T/TivgVgZ95wffkx7wp/5k+1g87W//Iv9Lf9DKv/Ux/633rQDOe9aF1jHnP/szjGDmpxzk8zjd5shdnWodSBBQBRaDwI6AEwYtz7LMEoXV7JO3YaS3a1qptFm8XGXAWe2tlP50g2ATARRI8+jsEwhADQyI8x/UczyIW5twOCTFkwXrtN2WKF2dah1IEFAFFoPAjoATBi3PsqwRhVyubINg7e7IAP1mc01kMMpIEQyIMi/CwCHhYF7IiCRmsEBYpSW+dcKwW1jVYn/tPnerFmdahFAFFQBEo/AgoQfDiHPsqQdh5Rzsk/SMWBGfHblsSMi7c1u6fpMCs2xncDelfGxdEDkiCm4xY47hJikU6AqYpQfDio65DKQKKgA8goATBi5McEBCA5ORkL45YMIbacXs7JP+zw9qtZyAJZpE3nMDSDFg6Az9KBf7b3eDoFDKQBEePkJFguPULbreCY0kgQQj8YVrBAFOvUhFQBBSBfIKAEgQvTsTixYtx/fXXe3HEgjHUjlvbWhoEWyBIomAJFC2LgcuS4GgNDGmwhIinCxcdMuEWLlpkwB7HJgzpNQnWZ+mtDvYx5lwkCNMLBph6lYqAIqAI5BMElCBkMhFrDwE/yoY4PvX8z1KQLGxNKwJNKlhm94LY/iFBEAuCWaSpK6AGwd+OSsiUJNgkwLESWHKFrDUJts7AGtvtnvhv4aLjsrCISNBPPxREaPWaFQFFQBHIMwSUIGSAPllIQZ/lsmCXA0qGWB+mZWN6PNf2nPSPE4/ErH+B4Q2Bov7ZOFE+7LK9JS0IQhAMNZAmCzkFgkWCg1HimScR0uRaUQkGuBZ36xbciJ3GizIwJcfSYM2EbZmwcUiLPomEL79E6uo1HlETp0c3FFWCkA+fHL0kRUARyM8IKEHIMDuJKUBvIQgjrgG2HAe2RmeTIeR0lmUNKx8KXCtEpNtS4FVZQ4MLKEHY1rKNbUHwCEMUghBxd3uE3dQUR8eOB+LiLI0Cf7jMG72CRRQcPuDkUbByJNguBeEETp4Ep68734KIDy+sgeBHH0HsC32A48fTkQTLtWGNHzzjp5zOkPZXBBQBRcCnEVCC8B8E4b0/gaOJQJS1+T1j44KXlk23xEkhIinSd7AQka5LCjhBaNHaEIR0BECsCOVGvYKYhYsRM2uuO5TxtDwJbneDSXLENd3WJ6RPnmSHThrRgqMvSEORokURNnI4EiZ9itQ//sgyT0LITCUIZ3yAtYMioAgoAh4IKEHI8DgkiMn/hRWWBYEEoXYk0Lyq95+ZlfuBmeJaGHS1RRBGigUhpIBaELY2twiCe8duLfTlXh+JmLnzETN7XrroBqNRyJgnISgIZb+YCP/yYlLJZkuY9gPiP/jQEITEzz9HyvrfTwufdPIkhPw8I5ujajdFQBFQBBQBIqAEIRsEoUU17z8sJAgzdhUOgrDlllYWQbBDGY1NQAhA+ddHIGbOAiEIcy3rQlYhkPKZf/HiKPPhBBwbNBRpMTHGSuBHS4IQhyJFg0QxmiAmlxQXAQi44nIENWyImMFDEP7qCCR+RoKwweVS8EzpzOsKnaUEwftPsY6oCCgChRkBJQgZCYKY/l+wNQiOBSE3CEJB1iCQICRut6MYHBeAkIEKY8SCsGCRIQmnRRy4XAWWu8CPBOHdN3DoiU5IO3nKWBiCb2yC0I73wE8IQsqBA4j9RNwI27abGQtq1BDBrVshZtgIhA8bKi6Gz4QgrCfndRMRR/Mg/4bNmlmY/4713hQBRUAR8DoCShAyQJooLobeGVwMuUEQRomLoaBGMWy++Q4kCUFwBIGWJUEsCEIQil5UAylHj5qF25is3CEJ1mv7zSKSZCqgSmUcuPs+MDIh8PJ6KDHgJUSPfwepe/eh6HXXILhJY0QPegWpBw8g6LprUezFF5Ai0RP+Vaog9pURNkGwRI0OIXEKPIXPVoLg9W8PHVARUAQKNQI5IgjMErh//36UL18e/v7pHeYJCQk4cuQIKlSQgH6Ptm7dOmzfvh3t2rU7DUgew/HYSpQogWLFiuU52HlFEAqyBeHvm+hi2G4v9nbSInlV4X+vSvjjLsQxBNEhAh6RBZY80WINfmFhiOr2HA4+8rgQhFMo9e54xIrGIEEEjsbYIAQicmB/JP66Egk/zzIEIfShBxAnloPQJx5D3DsTLBeDTUIykoTwOT/n+bOlF6AIKAKKQEFCIEcEITY2FnXq1MH8+fNRvXp13HjjjWjevDn69euHr7/+Gj/99BMmTZqU7v4nTpyIBQsW4JNPPjkNlz9Edd60aVNce+214O9jx45FmzZt8hQ/JQg5h39Ts9vEgsBMivaSb4cWVhSCcHL2fJyaNSd9eKOtR/C0OPgXj0S5j9/FgcefERfDSZSb/CWODR2B5N8lMsFYBIDivXsiedcuxH/3vRCEhggRF2MpE24AACAASURBVMPJgUNQ/LWRiJvo4WKwz+9JEiLmzMr5jekRioAioAj4MAI5IghpaWl4/PHH0bJlS7Rv3x61atXCJZdcgunTp+OOO+7AoEGDUKpUKXz88ceiJ0vBc889h1mzZuHTTz9FgwYNULJkSTzzzDMIDw83kJMUdO7c2RAO/t6tWzfMmTPHkI0gEaexX7169fDBBx8gMTERDz/8MA6IL5qfXXPNNZgwYYK5jqioKLzzzjuGsEyePBmRkZHo/FxnHDxw0FzLqVOnzNibNm1CUlISNm7ciK5du7pS83rOf2ZRDLnhYsjvFoTU1FScOHHCYJ2xbWp6m2gQ/jFaAndugyIgQTg1Zx5O/SwEIaioq1yzCWd09AGpIvqQsSlSLP/xe9j/2NOGIITfdSdCb7xBSMJI8zqo1oWI6NENJ18bi+S/NokGQSwIbYQgDBgsBOFVxFKDsI4aBMvFkD6nQhEUnzfbh//M9dYVAUVAEcg5AjkiCBx+yZIlGDVqFAYPHoTPRDnO13PnzsUFF1yALVu24LrrrjMLN39funQpmjRpgvHjx2Pa9Gno8nwXXH311ejbt6+LILRu3dos/O+99x7GjBkDvi5dujS6dOmCxx57zBCAHj16GOLB11zwP/roI7z55puoVq0aRo8ejVatWpkF/9ChQ3jttddQtWpVlC1bFg1F5c7P2caNG4fKlSsbMjJixAhzjJO7XwnCmR+cP//8E1dccYXBv0OHDigq+Qec9teNLW2RorUwG5eB/FQcNwonZ81DzJKlqPzOOBOR4GRFMq4FIZzR30/Dqek/GoJQwSEIyUmIeu4ZhLVtg5SDB5EmBM9Pnoki4taKHvcGEucvkgiGawxBiB4wCJGvj0LsxE+RLAQhqyqQxefPOfNNag9FQBFQBBQBFwI5JghchLnIc4Hljn3KlClo1qwZ3nrrLcyYMcNYFLjzp7WBu/zbbrsNCxcuNC6G1atXo0+fPoZQsNFq8PTTT2PatGn47bffjDWBfa688kqjW6C1gITj77//Nv3r169vrBFcoEgEeBytApdffjkeeughLF++HEOHDsXAgQPRsWNH1KhRw1gtqJcoU6aMsWLUrFnTWDayanllQcjveRA4nyR9JHDUjnz33XcGd4YibjQEQSwIJiuilQWRZRMq/W+0uBjmys88BIsFwCr17NYdsG/KkcNIPXIM/lHFUfGT93Hg+Z4oLfkTUvbswfE33pYUzX7wDwkWK0KMyZFQvGdXo0NI2vA7QlrdIQRhMKLGjELMJ5NsgmBFRbB5WhIiF1jPnDZFQBFQBBSB7CGQY4JA1wEXWi7a6yWsjC6EkSNH4sUXX8T999+Pq666yiweFCsGBgZi6tSpmD17ttn182fDhg3GHeAQhGeffda4FegGIAFYtGiR0SWQIMRIPDy1DlyY+GXPHSz1DIMHD8aaNWvEgvGZIQI7d+7ELvFNh4SE4KDsODt16oSnnnrKuDNoMaBFgsfTBXJGgpBHYY7DGiQjJV7i//N5i5OUyT/88IOx6lA7QuJ3rOOjSHSKNVlpDsWC4IfK40cjWtwLJ3+WTIqy0DsLtlm8pa6CyZhIwiDkwy9SCMLE95G0cxdST8Xg6ODhxvVgcQq7hLMc5V+xAqJe6oMTI0cb4WKquJEMQfh4IpLXiotB+vPcGS0JUQuVIOTzR0svTxFQBPIZAjkmCLx+LvADBgzAvn37jBWApnzu9iMiIvD2228bVwFdAg888IB5jy6G+Ph4s+A7AkeOQ7N148aNDQlghATdCiQZl156qSEFbF9KIZ5evXohWAr/PPnkk8YCQVJCK8Bff/1lyMKKFSvMe7RA/P7774aY0LJBi0b//v1Rrlw5Y/EgeaBuggQiq5ZbFoRfmUnRI1FSi7h5aHNbS2N5ye+N10hNAlvdunXxXkAxBB86YkUb2GGMdDFUHv+6IQgxvyxDlXfGokggXQyS7+jYcex/ebC4IF5HSswpHBow1EQzVJ7ylanHtLvNXVbtBtsi4YgfrdTL0oQYFCF5YDIl0TZEjR0tFoSJSFq7zk7W5NY4GDIiHUssmpffYdXrUwQUAUUgXyFwVgThTHfAXSYXkdBQqUZkN5qluXDTJJ3TRnJBy0WYhML9V+M5T56MFhdHMdd5snusM65nsSZNlHQ62iSCJF20DL300kvGRbS9RVskbKNIkd4FJ9+BH6qMf00IgrgY5sxHuCQ2oobArPAJiYiTxTzs2muQJnqDhNXrJMwxFFWnT0b8nxtxsPsLTtYEGVMsDams2GS5DvyKBlqCR54sJdkQhWLduyD+x5+Q8reQStPPJgiGUFjWhxKL5uf0sdP+ioAioAj4NALnhSAUZEQzWhBqRABNK3nckbX+nd48N/7Z6LP2IDB3rxRrKiC1GBj9QevQK6+8YnQI/Jf5MNj+uP4WIQg7XIux0RkIBlXHjzEWhOiZEsVgQiCl2VUaXWmZ7cXcP6IYqnz3FdKSEpHwx0ZroZfuybv34MSHE+EnOoTQm5shtOn1CKhY0ZCNFNHDJKz8DXE/zUDa4SMul4V1rJ1R0SYJJRcrQSjIf5d67YqAIpD7CChByIC5J0H46C8p+Szlnu1NsVdnh56EkhII8HKDglHNkZoQhrhSHEotiKcl6I8mtyBeUiCbMEcPt0CVN8TFIImOomfOthfs9HkSMpKEsCaNJJpBkmUZIaPlr0g7ES26hB0oIVYCP7FInZoyHYnMjSCEJVCEj2Gtbod/pcqIfm0MUrZsdUVRWMEUbktCqcWS7lmbIqAIKAKKQLYRUIKQASrHxTBEFu5A2fWekBpBmTUuQMZoQOs3f/ewILhe27vgrGQF4eKSZwXHnlL7Ib/nQXB0BxkzaBKC3xuLBWGr1EgwgkKT3NgszhUG9TN6gyMfTUIR1rb2EBtargju8u3dvr2gW0YGvimuBclaVUQsB6VffhGpkqTr+Pi3pZBTnPsYWgdEjxDWoR1Cb7oRx17sjzQ5nyN+9HQ3lF6yMNt/FNpREVAEFAFFgF/DBUEVl4szlSIL/eCVQGwSEBxgkQDHY8CFXtYtpFlrm+t3vnT6ef7r+SaP4zE81rN/kqybAX5ppuxz4PkwVeQCdhsa0cVgp1p2og6ELTC0sfqEN5EgIZBpokFxgMyYf8IRNppLdfBJTMLhISNQtF4dlOzWGQe69TaLv6ETJBr2eYrWvljSPP+DqH59kCyRFDGffu6OlvAgJGWWLcoFJPQUioAioAgUHgSUIGQylzFCDn4RfUCMFG5ydv/WIma/9rQW2JrLNG6Q5Xfn39P6WhZzawz+n90/WI5pVFHSCAe6Py9oj9f6a5shXkiACS/kxbssCUUQVLkSQmrXhJ+/sC0u73bJZ2uhJ+OyxAmOmNAhABQgxi5dgVJdn0XKqVic+OAja+G3WQSrPYbf0wHhd7bB4c5dEVTnEhR78F4c7dLDKgttzmXnXZAXZZctLmiw6vUqAoqAIpCnCChByAR+iuZ3ifZgb6zbjeAyI3hjujzMEqWCgQuLWzoHh0B44xS5Oca6hjcZCwIxcrQJ1g7fcTfYJMAmAlaeBOuG06VFts0HloXA+qy8CB1PSqbFuIW/IOS6q5Gw/g8x78Sh2L13IaLjXTjc9yUk/70VgVUro6SETR669yFIPm0rosIeny/KLVeCkJvPhJ5LEVAECj4CShAymcNvJFpuhUQZhHNXf57nOFasFCQIT9Q2SQMLZFt3bVPEb2EmRcHLlRDJMg7QnOBYB1whkE6EAT/LUOApnXBRxio/ajhiFi1BzIKFKC0JkrjoJ0tirGId2uPAs12QIomVeOIgyZBZ8pWBOPjQ4yJgFO2C4waySUK5Fb8USGz1ohUBRUARyCsElCBkQD5ZTP+9lwHP1QUuiExPELJKYZQZiWBfuicSJDNjOgGjx/mCRKB4JB4YvgYYcY0IFoWQFMS2tqEQBBEpWuJEy1pAS4J7kc6EJHhYF7IOgfRD1P0dEXxJLRwa+Ar8oiJResCLKFrzQuzv3A0p/+6xrBRyvvC72yP48ktxdKAkXTJJlCwLhKNpKL9yaUGEVq9ZEVAEFIE8Q0AJQgboKRrsJQRh1LVAUVnAz6VtlOSCEzZlPUIFcS/0qW+FOQ6TqIlwd/2jczltrh+79hqbINBiYHIa0UVA64CtGfDQJFikwcqT4AqJtKtAGqKVIU9CYJXKqCAZGQ+JYDFh/e+SJEmSbUnCrTRJnuWM4V+qJMqIe+HEhA+QsHS5Oz0zLRS2JaGCEoRcfy70hIqAIlCwEVCCcB4JwhpxU0zcnPUDEiVhjoxeIEEYLv+GyeuC2NZcfaO4GMSCYIQUHgs/3Q1c83lT6UiCFYVg+IATlWCTBPOeJ0nwl1LNYh2I7HAnDr/6upVESdJyU7ThF+CPgAoVUbL/C0j5ZyeOjR5rnd/RNniMVWGVWhAK4rOl16wIKAJ5h4AShAzY08XQUywIQ2TBLn6OCzaTLv151BY6ep7HFimWDQHKSDbq3pIHgS6G0ALqYljd4AbbxWCJCz2jElwFmdKRBGsRz5gXQZb89Au8QzZIEtq1QYnHH0HCpr8Ru2SZhE0mIuTKyxF6YxPESCKm4+++J7kWLCdQutoNZgw/VPxNCULefc3omRUBRaAgIqAEIcOsMYJh2GogXrQDlaX0A3e/2amf5BmBkJP+B0WDQJ3CIHExBBRQkeLqq25A3JZttkvBJgiuOgjuiAS3JYF2A8f87+FuMMd4RDxkcDcwk2Kxls0RKnUd/KR4V7yUfD71/VSknjjpFjs6FgknH4MdGllptbAwbYqAIqAIKALZRkAJQiZQMUnSzJ3AtpPZxvGsO9KK0LY6EMFCh+c7ZOKsr/K/D/ytvhCErUIQzO7dciowT4GTAMkYC5zSzqdZEtKHQFrugSwsCYZA2YSDv3mEMTr5FSzVg0cyJbt/ZSUI52n2dVhFQBEorAgoQfDizL744osYMWKEF0csGEOtqn+9ZUGwd+ueNRDSuRuMzsBiQU4mREuD4CYJrsXdsR4YT4RlbTCLv6MxsAWQ2SUJVdauKBhg6lUqAoqAIpBPEFCC4MWJ4GLli5mrV17RxNIg2Iu3RQBsgaLLkmALEj3yJFiLfRZ5EmxLwn/mSXAICc9nj5s+QsIdxVB17a9enGkdShFQBBSBwo+AEgQvzrGvEoRfSRBYSdFOfMRF2sqR5CYJRlpgClt55EkwfdKThNNDIN0uhaxKRTuREiQJLheEK5rCIglV1ylB8OKjrkMpAoqADyCgBMGLk+yzBOHyxraLwYoYMP/Zu3uGI1p5EezQRo88CSZUMVskwcm4aPkmXDkUDB+wx7e8Dx71F6zzOS6MauuVIHjxUdehFAFFwAcQUILgxUn2VYKwggRhs1gQ7ARIxoLgCAjNou0mCZ55EiwikbHAk9vKkFkyJbdGwV78HZLg6W5wijTZ7g2evfqGVV6caR1KEVAEFIHCj4ASBC/Osa8ShLV33I14SVRkhTHacQTGvWCHMLriG61IDWvht4WJjhuCfcxbNmHggu9KpuRYDSS1pZTGdsSKVsEnO5rBPhcvwariaL9vuxoqz5jqxZnWoRQBRUARKPwIKEHw4hz7KkHwIoQ6lCKgCCgCikA+QUAJghcnQgmCF8HUoRQBRUARUATyFAElCF6EXwmCF8HUoRQBRUARUATyFAElCF6EXwmCF8HUoRQBRUARUATyFAElCF6EXwmCF8HUofIFAt999x327dtnruX+++9HWFgYPvnkEyQlJeGyyy5D48aNsWzZMqxduxbFihXDQw89hLi4OHzxxRdITEzEzTffjIsuuggLFizAli1bULRoUTzwwAM4duwYvv/+ezNumzZtULJkSXz88cfmdY0aNdCsWTOsX78eq1atQqCU9+a5/f39zbgJCQmoX7++Of+vv/6KjRs3Ilhqc9x1113ms2+//daMw2u78MIL8cMPP+Do0aMIDw9H+/btsXPnTixatMj0adu2LUJCQjBlyhRzvezfsGFDbN682Zyb495xxx3mur/55hspJJqMK664ArVr18aKFSvwzz//mOu6++67zTlmz55tonluueUWFC9eHLNmzcLJkydRuXJlXHfddebcK1euNH1uu+02M+6MGTPMdVerVg1XXXUV/vjjD/z9998ICAhAy5YtDdZz5swx13v55ZejevXq5jyxsbEG85tuugmHDx/G0qVWQbJbb73VYMZ7jI6ORtmyZXHNNdfg33//xbp160wfzgvvjedm4xzVrFnTfL53714EBQWZPrz2JUuk3Kw0jlGiRAksX77cjMvfGzRoYOaS9+Qn4mBix2vifBMrzuuVV15p5n7Hjh3mvm+44QZzTxyHrVatWqhYsaKZb2IYKjVXrr76asRLSXfOL4/hXEdFRWH16tXmmiIiIsw88L7/+usvMw6PCQwMkHFXmIR1VapUQdWqVbF161bs37/fYM3r5bh8XlNTU1GnTh0zT3yGTpw4YZ4FnovncMa95JJLzPk437yWyMhIc827d+8247Jx3nhPPIbj8n5Kly6NPXv24Pjx4wiUMvUXXXgRUlJSsG2blXW2XLlyZlyOw2ePzxGv99SpUwYH9ilfvrzBlefhaz7DxDcmJsbMP4/h9bAPr5+N88p75d8hr4XH8T1iwjnhaz5bznrlykZrjk7flCBkAsrZvlUYCQL/+MPCwxAUeI6lLc8WVDmOX578g+HixD8OUwnyLBq/GPiFUqlSpbM42jcPadWqlVlgtSkCikDhQ8DJ/JvVd6oSBC/OeWEjCGSkZLSvvPIKnnvuOS8ilb2h+PByl/HMM8+YHQ3Z8Pz58w1jPpv222+/4dVXX8Vnn32G/v37Y+TIkYaBa8saAe5CuKvSpggoAoUPASUIuTinhY0g0KzJBZW7bpr6aLZavHix2cFzsb333nvxyy+/mIX7zjvvxJEjRzBt2jSz43/wwQeNmdMxjXIaaLKkRYJ9aP67/fbbzWuaNGn+5PH33HOPa0HiOJdeeik+/fRTY1rlw8wxeQzNyDRF8ry0KtBEOHPmTGPGTUlJxiWX1DFj0qRL6wPH5WJHEyrvo0WLFsZUzmvi9U+ePNmY4WhyptlPm4UATZm03JzPRvxpniUJzLiToemV5lCaUDM2mmtpMuUzkdnn5+OaHTOtY6I9X+fgfefmfZ2P+9AxCz4CakHw4hwWNoJAn+6wYcMMEaD/lb5h7t7fffdd41P86KOP8N5775kKlv369TMLNhdZ+ve4S+eC7fg0SRjoY6Rf+O2338ZPP/1kFuZHH33UWAhIAsaNG2d8biQlbPQD0idMH7izAHDBov93yJAhhgAsXLgQkyZNMr7Fzz//3PhL582bh9dee834w/kZx6VbgWSiV69eGD58uPERs1+9evVw7bXX4tlnnzVEgj53+p65AGgDmjdvbvzd2W1c6Nmf+JGEsdFXyvdI5KgtyEgCOA/33XefmUvOrdMOHDhg5qdHjx7o27fvaZdADcPTTz9t/N1169b9z0skmaAegAsvG33InufK7v0dPHjQnIvPy6BBg7J7WI76kSjzvl9//XXzt6dNEThfCKgF4Xwhm8m4hYkgUDhD0Q8X7qlTp5qFf9SoUYYkUGRDAVTv3r2NOIkLLl0R/PLn4s9jSRJICOim4PsffPCBEXSROHC3vmvXLiNe+uqrr4w14P3338fEiRONxYHnJJY89uKLLzZCH4cg/Pnnn2jXrp0RA3H3SHHVSy+9ZI7jOLR0sOw2r5XkhT+0FNA1QTcJr5nkhESElgheK4VgmzZtMgSBQiyOQQGWNqBJkybGSpTdxjmhgJAEcvv27UaIRQ1D69atMXr0aEPQPCuecp5//vlnI9jj8+Is9HyfBPHhhx821iiSOzbPLzQ+O1xA+azRwpTxc89rpjWKwjE+U7RU0JrE55IiPb7O6tiMX6AUkJF4duzY0QgTM94LhWy8Jj5PtFR5NvbN+B3hkCVqPfis87klCSY553N8/fXXp7s2vshIsDJeQ3bnSvspAkoQcvEZKCwEgQ+Ns8vnFxe/sMaMGWO+9PhFTIJAVwO/7EkQ6MvnDp0LPE35VGM7n/GL/fHHHzeLOhdp7vy5Y6RKm19+XNS//PJLQxBIDLjLcwgCRYVUGXOnSFcDr4skg24Bqsy5W+V5uet/4YUXjIqbu0leDxcjhyDwunjOjASBOzWqsalSpkqYlgoqrNesWaNuBvvvhmSKrqCcNC7ctAjQasC5Iu6cA2LMxfiNN94wkQ90Mw0YMMAQMhKECRMmGDJCVTk1IlxgSf5o7WGkw6FDh8zzw+eRpIG7eYcgUHlO0jl06FBDLPg+j3EWU4cgPPbYY4bQcvHlDp1WqDJlyhgrExd3Pk+8JirmSXI4HskxiQ5JJaMpaC278cYbDenhs8r7ZGQBr4l6na+//hpPPvmkiS7gM8q/F5Jt3jP/Dnj/VLaTVHMsktunnnrKnLtDhw7o06ePuX8SkEaNGhniNHbsWKO+5zl5b7S+ERteBy11JLfEmQT3bEW8OZlj7Vs4EFCCkIvzWJgIAr+Y+IVNUyd3hXQN8AuVX4KZEQSGcfGLjLs5fsEztOitt94yCwR/aAEgyXj++edNGA937m+++aYxO/NLNjOCwIeXBOLll182YWL8UmQ/7rK4iHM3SFMvx+zZs6exavDcPBddDHSFkCTQzTB37lwXQeDv/GKl1oDXwD78kuX8UYMwcODAXPNp5+LjmWunomaFIXPcBb/zzju44IILzGLI+eHCR/JG1wDdVlwwueiRIHAHzeeNFiaSPC7G3PWTbJIAMlyPLi4+Twynq1ChgosgcIHmay6QDK2j1YsklOdmcwgCCWvXrl3NddClQYLA53rw4MHo0qWLed54LXx+eM10m9HNwvdJHulW43n43JEAcLGmlYOLNxd3jsNnk79zHN4zyRF1HHRl8Z74rJUqVcqM9cQTT5jnkKSFxJohinz++LyTSJCgExP+nfB6SIJ5b3TfkLSQcPFZ5nu0vlDUS+2CNkXAGwioBsEbKNpjFBaCcC6QcGfEL7z/Eo1xJ8g+GU2wWZ2XRIHuAC7+TtQBX/PL0RHQkXBw18eFhf5mfuGeqXF353yZkmyw6mREMRUoeuJGUkcNQE4a8eciTssALTpczOliIrnkHHGn3LlzZ7NAck6pL6CVggSTLiy6jbgwcifvEAQutnQJkNxxYWbzdDGQxFKHwt03SQQtBLQskYB4EgQ+n2y8Rh5PKwNJBJ8lkkySSf7+v//9z+z6SZJJALj4Ug/jSRBIgGjd4E6/W7duJhaepJiElS4MWh4eeeQRl/WEBMeJ7effAPvRIkfCwOea+DAXBD8jRiQIfPZJRugK4fWQOPAz5kogQSCpoRaCuRpo8SCGPK82RSA7CKgFITsoeamPEgQvAXkWw3Dx4Bcrv0C5M2VCEW3njkBONQjOGbmgcdHnvJAo0B3Avw/u7rmAcYfN13QhkRA4BIGLMAWEJASeBIEWLe7+mSiH2pWMBIEEjztpLvhciNloKaD7yJMgcMEmeeFOnWJYmuVJEGjVoluE10RLBs9Ha8T48eONuyAzgsDPSDJISqmNodaCugsu/BRmMjzUIQi0qvDeeT6SAJIm7vZplfgvgkB3Ca0ntETwvnlvJMUkxJ4EgQmgSBqUIJz7M+9LIyhByMXZVoKQi2BnOBV3hE5omEYgeG8eKMbjIpjTxgWXCz91B9SlUGfCRtM4zeR0M3AnzC8oWpIckWJWBIEuCY7HRZILME303HXzOPrxucumm4FEgws6Q2cpPnWSYnlqELigk6DwOriwUyPDxZ0LPnURtCw1bdrUjMfrowuEugJaLjwtCLROkPhQ0EpiQtcXrRe0ONCCwfOzP10MDkEg+aG1g9YNui4o6CRB4Bh0XdC9QG2O42IgkaDlgO/RQkHc6MYgaVCCkNOnUvtnREAJQi4+E0oQchFsPVWuIODphsnJCakXade+HRbMX2A0JnQZOJEJ/J15NPiargbu6J0Fm7t5LppcXBlxwt08zfdcOGmV4I6ciz134hTp0cxPvQt3znRn8HOa9+m64K6bhMOxIHAsmvEpdPz999+NroaaALqjaKJnSC6viYJB6hIoemRfusNIkmhRoKaCizwJC60rnTp1MoJDEhdeH0kqr4H6hu7duxurFsNvaVmgBYGCW35OUkQSQJcK9Q10wVBrQR0CRY+0fFAHQbJB/IgTv8yJE/vydxImXgfJCNNXM7KHpEddDDl5Un27rxKEXJx/JQi5CLaeKlcQYLQIBYfebPxSoi+eOpXs6lCc89NSxB8neRKJCJujeeHu3Em6lNMsmSQWntdEUkJXA60MXLyZ74M7d8/G8/NeeB/O+fiec42ZRRTw+vh+RksXr53nz0y/w2M4Js+jUQrefBp1rP9CQEWKXnw+lCB4EUwdKl8gcLYahHxx8ed4ERQfMjqAjbt+7ug1y+Y5gqqH5ysE1IKQi9OhBCEXwdZT5QoCvkwQCDB37mwaOpgrj5ueJJcRUIKQi4ArQchFsPVUuYIAowaoCdCmCCgChQ8BJQi5OKdKEHIRbD2VIqAIKAKKwHlFQDUIXoRXCYIXwdSh8gUCTATkWZEzX1yUXkS+RyBeamIdjc78MstEAQePefcWgqWcRgnNcZZjUNWCkGPIzv4AJQhnj50emT8R8HUNQv6clfx/VRu2AiMkfQYXbqcx4CQhGXjreeD5N0XXIQVTJXnpObdEkYlcIdGsve4556F8bgAlCLk45UoQchFsPVWuIMAcBEw7rE0RyAkC67YA//seeLOL+6hte4AhnwETugHPjAOGPgJULpOTUTPv+/5PQjzEYtH3vnMfy9dGUIKQizOuBCEXwdZTKQKKQL5FgARh3BTgY4+0EZv/BV780E0QXnsaqFbu3G9hvJwnJk4JwtkgqQThbFA7y2OUIJwlcHpYvkXgs88+M1n6tCkCOUFACUJO0Mq7vkoQchF7JQi5CLaeKlcQUA1CrsBc6E5CMj5bJgAAIABJREFUgvD6ZNnVd3Tf2q5DwAcz3BaETq2AciJYPNf2/RLRM/ifbkHg4sc6F6wLwuyUTG3NdNm51ZjOm+mv2ZhgiynFmT2T2UmZ1tt5n3U/cppR1Fv3oATBW0hmYxwlCNkASbsUKASUIBSo6co3F/v7dmD0N5lfzv86Ad3fhdST8N7lUqTYvUP68ZjymmnCWXODFTDXrFljXn/44Yenpbn23pW4R2KNjGXLlpk6Hazrwfoja9euxfvvv28ig+rVq2dqdDCF9o8//ng+LuGMYypBOCNE3uugBMF7WOpIioAiUHARYGTBSdEFZNYiw4DjMd69N0ZERIRmThCmTZtmyoozKyYXaxa7YvVOVsXkAjl06FBTKXPnzp345ZdfjJWBFUO5mE+YMAExMafwzDOdTHGsTz75xCz2rNrJsTj2E088YQp3sejW5Mnfyvv1TaGuV155BaVLl0aPHj3Mhb388ssoVqyYOSfL0bMA15EjR0y1zm3btnkXkGyOpgQhm0B5o5uvEoR/Oo5G8r+HDYTEQP6D/D+KSAwT/+dnxzJZn1lxTc7vRfzk9zR3X35qjnPGcY7hv/wfxza/e4zh8ZodXH3sY9nX7wsPObU3JttHxuAXGKsQalMEcoLABlnvRkqYo1j23U0sBqnyM/45oMtb/I7gH3FORs28L8Mn64sFoWeGMEfHguAQBB7NCqHcub/66qum+id3+KyAyYWbhOC9994zrgBW3WSlzDfeeAN79uwxFTM//vhj3HrrrYZE3HnnnYYUsIgXK2yy+mfXrl1NRc9hw4aZUtwxMTHpCAKJBYnHddddZ6wY7EMLAkuqs85HfmyaKMmLs+KrBGHbHUOQ+M9B96JvL+J+1krtWrDTvYZfeiLhkAqHCJA4OAu861/rPUM/HKIgv3BcizTY5CMDweDnftPTV+Hz4rQX6qH4hUg/rjZFICcIUIMwVsIcxzzjPmr7Pos0OGGOL4v2tVKpnIyaed+PZwFSCPO0MMfMCMJ9991nCm9RGxAaGgqKcEkWWGK7QoUKxhrABX/UqFGYN28ePvroI5w8edJ8v3zxxRdiSXgGS5YsMcLdxx57DDfddJOxJDz66KOmmuezzz6LHTt2mDLdJAKeFgSWH+d4LOXNxmNYKpzlz1muPC/KdKsF4dyfv2yP4KsEYWurIUjaLgSBS7e9ZaDVwHPHzxXdWcjZUejBaeTBLP6eRMGDBKSzOFhHn0ZIPEmCOZcHUfD/oU+251E7uhFQDYI+DWeDQH6IYshIECgOvP7667Fp0yZTorthw4YoVaoUVqxYgeHDh6Nq1apmYWcVz/79+5vFf+PGjfj333/x0EMP4csvvwTzgpA4PPjgg3j88cdx4403mlolAwYMwNdff43PP//ckA1aEkhAHIKQkJBg3Bx0b/z6668uFwP1B5deeikWL14kljovsKUcTpYShBwCdi7dfZUgbLldCMKOA2Zx9xN3gWU1cLsWLMsB35Za97aLwc9f3pC+Gd0PbheCTTAyWBI4P4Z8yFhZkwT2sgiCQ0oCflSCcDbPNv2qd91119kcqscUYgT279+Pli1bYuDAgWjbtq3Ldejccn4iCLGxsaYaJ036I0aMAKMGSB64sHfv3k0W/4eNDsGTINBN0LdvX+MCqFatmrE48G+BegIKDEkkaEG44YYb0KBBA+OuuP/++02EAt0VdFG89dZbRsPA19Qc0GJAN8SYMWOM1YKRDYxeaNOmjbFY5EVTgpCLqPsqQdh86yAk7qCLwVMfIGTAU3vgaBI8LQRc/I27wHERGLOAS3/gRxJgsYDTtQyOdcB2N1jEI4P+wBlbzhP004u5+CQUnlPxC8TRjRSeu9I7OVcEuMDSt9+nTx9ccMEFxofOHbLzrBgXw3eSbvkJ95l27LdCHx0XQx/RDFT0wqb5s7mibRAdQnYzKXLXTitCixYtjPWgUqVKWcLBEElGQGTnb4B/K05/hlUWhqYaBC/Ooq8ShL+FICT9c8C10DsuBO7gPRdtTw2CWfyDA1AkKcVYEk4TFnq6FxwSECRS5ZRUD1JhWSVsDmF+d1wUlovDtiTI4EVnKkE4m0edX/wUYmlTBDJDgEI8CvTGjh1rzPA0tVPUSoIw9PPMMXMIgjfDHBvUzD5BoLmfEQTc/dNV4MtNLQi5OPu+ShA2tRhouxg8dAayVjvuhoxuBL/gQIRcXQuhDS/CiQ/nIi06Np37wdIyuIWHxsIQ5I+QW680suikxZJ8hMe4+nm6G9ykwHIvWFaNojP75eKTUHhOpRqEgjmX3OHTh75w4cJcvQH63Lkrr1j5ApyKzfzUkeES5njKu5dlwhwlfFJbzhBQgpAzvM6pt+8ShJcliuGQtWM3Czv/IUOwQxiNQFFehhVFyGUXIPLBGxBQoST8S0Vg/yNvIHmnHGtrFNKTA9tlQS1BaDAiXmoP/2pS3SU+CfE//IbkJSQKcW6iYJkPXBENnjqIkJ9fOqe59dWD27VrZ/ypPtcSpFbxSSkecHANcOh3IE7CeIvIKlSsPFD6cvm5DAirICn8gvMlNCQIFOFxd0+Sd74acwssX74c7du3N5kKv/vuO1SvXj1fWBCSJbSBuQ08G33+FStWTOcyIFZ79+5N52qIjo42fagfKMxNCUIuzq6vEoS/WgxA4nbbxWDrDjyjCPwlg0lYw1oo1vxyWeiLImbBH0jcvAdlhj2IQ90/QtIujxBJWgVcOgSPfAdhwSj+Qlsk/LIRSExGcNN68CsRjqRftyDpl03AMQlFEj+ksR/YJMEV/ihvKEE4uz+EuLg4hISEnN3BBe0o2rxP7gbWjQe2fyyMVu67qCwQEQ2AUCEGaRJLFy0B/jFCGBIlCxCf9briuqolzvSQEtaDl0/a+SYIXFgo3GNcPxdhVvxs3rw5goKs+s50MYwRDcIAjzIe8meOt6a7NQjd7pRUywLbubZvFllTkVGDwBDCe+65BydOnMDu3buNRqJ27dqGNDEk0Wl8xnntzG/gNCZE4r0wLLIwNyUIuTi7vkoQNjanBUGiGGT77kQsmNwDYjEIE+dg1F2N4V+sKKJ//A0x8zcg9WQ8AssUR4X3OuNAjw8tC4JLxGi7BTzFi8b6EGIIQvysdUhauQVFigYg4JIqCG3XUIhCGBLn/Y7k5ZuBI5bt0tMSwWsJndU/F5+EwnMqfskya1yhb8lSL/jXkcBmqUNcTBzaVw8HyoilIFDs4X5iOXAWf5KIFEkTmHAc2DUH+K2vKOTk9bWSO/hCKS7g51548hKz800Q9u3bhyuuuMKE/dGfT5W+p5AvP0QxOPgzxTHDGB1LGJ/piRMnYsuWLSbvQa1atUzOAkYmcMF86qmn8NVXXxmCwCRGDF/8888/TVhjjRo1siVYzMu59+a5VaToRTR9lSD82by/bUGwRINsfkGBKHH/DSjRqgEOvT8HcSs3i9ZA3AG2tiBACELF95/DAVoQdloWBHc4pBPdYCdTMmQjGJEv3Im4WWuR/OtWiwTQhVE0EAE1yyP4ruuEhIQgdpiYwx23g0dERNjsl704074zlE9oEOJksf/hBrEMHAVu/kKen72y6Iu1IGOrdpOQhwz1iZPE0b5FnrmlnYFqUgyg2XuQ7WmePyDnmyBwfCYQKl68eKb3mp8JAhMTkQxceOGFJpLhjz/+QJkyZUzuAlpFqKGgRYHuCJIL3itDGhnuy2yLhcntoBaEXPxT9VWC8MfNQhAkhslJjMTl3b9oEMo8fweS9hzBianLUSRZwuVsTQJ3YwFlI1H5g+ewv/sHSN4hZd48Qh3daZZJEGxNAwlCn3ZiQViDxBViQbBDH82YHK92JYQLgTjV51PgKDOfpc+TED5HCcLZ/CkUeoJwSmLvpsvCH15dyMFEcTEIOZgm+oKIDFX/Eo8IOZA+d0ravoyNVoUjfwOzWwPFLwVulSpFeRzmdr4JwpmepfxMEDZs2GByFGzdutVkRaQl4fbbbwerLx46dAjNmjUzVgRazug6oTsiKirKVGCkZYF5FApLU4KQizPpywQhYbsQBNv3bwiCRCqUfb6VuB724/j0VVJvIc34CZ2cBoFli6PyR11wcMjXSPx7j5ht0xAgLonUmHj4CxngaySnwD88GGlS9YWCxshurRArYyX+Kq4EWhU83BABF5ZDsf4dcOqFT5F65KRljfDI5hgxd2AuPgmF51RMAFOYvhDTzUy8CBF/uFn0AyI2bCE5gCk4PLBBCMJ1wFMZZPYxQmK/qgG0FIJQ8drMJ/iEiBp/ag6UbWxZEvJQk5AfCEJ+CXP0dDEkJiaazIVMhNSoUSOTJpkiS6YUpxuBpIF1Fhy3ybvvvmt0FszAOHnyZCPGpMixsDQlCLk4k75KEH5v1g8JphaDHZ5IHiAagXJdWhttwonpK02VFke4SIFAYJlIVP20B1JjE3BSPk/aexQRt1+FE5MWIKJjE6TsPoL49f+g+P3X48TbPyOsdQOEXF8Hx4d/Z4SJTr4Dx5IQcJEQhJfvwskXJhkdQsYQyIh5ShBy8U8h/5+Ku/4lEvq6e4ZYBUScFhxhXTMJwvRGwJMnT7+HWSJYS5O8HS2/zvr+DoqAcbq4K67/BLhINAl5RBLymiDExksAiHhuMmtMjrTHqu3mtRYi2siyWQgeV69ebQgBNQjEhcJDpkGmi2Tu3LkmCyJJMC0Hhw8fNvUWmH2RGgT2Y7ZIZktksSXWJXGEmF67+Hw8kGoQvDg5vkoQNjQlQaAFwdYMMMJR/rjKdRULgkQ3HBcCUIQJjmz9gSEI4mKo+nFXHBj0JRI20+ebCn8JZUw7FQ8/sRoUoQUhKdnoCqhdCCgdgeLdWyNu6kokiAXBkBEPC0LgheVRbEAHnOz9KdLEgmARBLkekzvJD8WVIJzVk04RF/PHF7q2X8IXfxBLQavlIqW/wn17xoJwlUQn2Km5I6oBlzxsCRUP/glMlc86SJ8SF2UNye+C12ohH/dKxAOjIPKg5TVB2LAdGCVGmczaOJFrdHtbuJb8iXur1RddaXeRgGS3sUopXQie0QwkBXxN7YFnYygnwx4LY1VTtSBk94nxQj9fJQjrm72IhG0Mc7REisa6LxaE8l1pQTiIY9N+lRBEpuy1RYw2Qaj2cRfs7vK+aBAk/skzTbIT0WAWeTvNcrFglOzbHrEz1yBhhRAE08cdEkmCEDHgLkT3mmQRBE9Ng4wROX+wF2bY94YotBqEWRJ/lyxb3FunpY88oNth7tPi4hILQopENhxfJRYG+YmSesJc0Wa0l7zdIsy7RcIgs2qJMcBnkr63vuTXv+zJPHlo8pogUIMw+lugkxhRnLZfNKBfLnCHOT4g0o9SmWscc4TZzzI9sqfIdqrlHA1eyDsrQcjFCS7MBIFJRxgvnJmCd11TIQiiQWCzcg9IHQaJLigvmgFaEEgQaCGwEhdZUQ5BZaJQ7ZMu+LfLe5KmOUOpaOnjHy6WA9EjWFICGVN0CSX7dUCcEIR4CWd09A4OEQioUQ6Rg+7GcRKEQ1aSE6uok5VLIWrhkFx8EgrPqRjmRWFWQWn8wuNOkKbhLPPnn5S6w1+J4LCNrCxl6mV9a6niTvhRCEFRCfNs/pEVNrNrITCnHXCfbJFD/iP8c+NnwBoJrb1HknkF5n4eifxAEMZNAT72qLK+WSQaL37oJgivCQ+rliEo5Gyes/FynhhJS5HdWgxnc47CeowShFyc2cJMECjkYRlUqnpZfSwgQEyudlt3Y1/EbxMXg1P/gFEFweJiIEEQy4InQXAW9KByUaj+SVfsen6CIQiMemCdBWoVAiuVQJkX2uHQK98ISZBdnCRGYphjqX6WBSEdQZBroCshUDQIkQPvwfGeEw1BMCJGx6UhfUouGpqLT4KeKq8QIJGl+Oy2227Diy++aKr4pSMKtAL8KTqVPyXfwd2rs9YIMC9CjOT2YL6DH68Xt8J6iWyoIs+nkIaptwCREq3QdGzWx5+SY7+tK9YHIceRF+Q6HEoQch3yAnlCJQi5OG2FmSCwAhpJwgMPPGBqqDPTWN268gUoba0hCPus3TpDFeQ7mAt+hW6tRZtAgrDC7WJg7IH0owbhgkndsOs5UXvLAWWFEBx5eyYS/9qNiNuuRHjTS3H4tSko1ac9TkmCpYR1/8jv7RAzgwThb7cGwS7pHHBReUQJQTjW8xOkHaYGIb0LQgnC2f0hsLTtLbfIglhAGr/wWHKXQjOW6nUIrau6HgnC/EflbiTPwU2yy8+qrfkfsP4VIRGSufMnCV8sLxg0EZLJ4/+ZCSyWMe6XNL5ZpVomwfhc1O6NRI9wYZtcR08JQq5DXihPqCJFL04rFz7WSS/MjeZbkoPRo0ejQ4cOporbzvajLAsCd/O275+Jkir2aCPvC0GYKgQBThVGolMEtCBcMLE7DggJKHHfDYj/fQeOfDzPHF9h9CM48eUviBMxYliTOijRqSWOT5xvfo+dudpYENJFMVDTIAShxKCOONqDBMFyMTgWDf5earF82WvLMQIFVYNASwIT3/Ts2RPVqlXD+PHjcfHFF8sCL1aq6S2ACrcCDXpkjkfcMXGWi+pNrFmo0x2ofKNoD4QgdJQEXRESEpkk9uyvJMtizaeAa3pmPgaJxPctJSRSIhoa5n6hsPxAEF6Rao7FPQooSdQyRIPsKvdM3YC/F6oiiycSl0sEqroYcvznbTJHmm/kLKJtlCDkHNMsj7jkkktMmIwvNCYUYWOK0hHxl8H/gIQWOpEFjBsIEYLQXWonCHE4NtXWIJiIAksTEChJ2GtM6o5jU5YhqkMj7O07ScIad0gxp2ooN+he7H76bREbnjL1FiqMfRyJW/ebnAgxM35zuRjMgy3uBWoUAkSkWHJwRxzp/rEcZxME+2xf7VuHrv9IOJs2n0WALrFVv63C5fXENfCdRC9c0kUW/0zy7PMLc73UYvjrHVnYxQ3xyyNAO4l4mC7JcWo+AVxlE4LNkj1xhcjx75Y6IMFZKO1mdwICiuLTPfVNfH1uNn7xf/jhhyZTYNWqVb1y6quvvtrkC8hOixad5lYJTsqs1akGbNxhDI1ea8VDgRqFJz2B13A500BKEM6EkH6eIwRY9GTEiBFGuNa9e3f07dsX6258EfFMlGRXciQFYEnnSj3uRPzWfThKC4Js3Kw8CRZJCCwbhQslD8KuHh8g9MoaiLrjauwd8DmKSy6EAKkHe3D4t0IyglC2310Sep6K45IfocTTLYUgrELcstNFioxiKDnkXhzp9pFlQfAsFy2/l/llWI7uUztbCPz777+mSl9Ba7QgMGa9R48eZoGkBYGFeiiWxWRJdFSnm/zce/ptJUrq5K+FRNTtJT8PAd+IpYBkgsmUlsmCf69kTKQ4Mf6EWBkk1PHaN4CLO2YOz+xnhSAE4rU1lbF+vWgYCnBjtUMmGfIsaFSAb0cv3UZACYI+Cl5BgF8On332GXr16mV2JRMmTEBEhJVc5rfGvRHnoUEwkQeSB6FyDymuJBaEI1Mk1bLsaFx5EkyYYxQu+qwndnR6B4m7DyPy1vpIPnwCpR67BYfH/4T4v/5FgORFKNbiCsQs+sNkVSzz8j2iR1iF+GXyJS3N7UYQwiH1GEoNuQ+HSRBMFIMdImmiGIqg7FIpvqMtxwjExMQgLMzDTpzjEXL3AH7hMXUuNQjbtm0zGoS2bdu6Tah0MUwTd0Fl0RXU73r6xa0XTcyG0RKlIJYB1lTYLCUJlz4uxED0BlPE8lBbrAaXy8LPtv594PcREqkgz2egbGE9Gy0RUyXGr5ykbL624Kf5njVrFl555RWfIQh00SSkxIs+Og7JUpcjVcSpVkSVFInzD0TRgGAE+hV1RWXl7lOee2dTF0PuYV2gz7Ry5UqTn5wkgTsxzwQjKxv3MpYCV+4BCgdFg1CFBEESKB35XpLRmDwIVggk/9ACRYNQUwjCP8+8bbItcscfWq8aou5ujP2DvzKaBcchYSpDSh6EMi93RIwQhLhl8uVthy86eRKCSBCG3odDXW0LAo9moiTb7VFumXyRa8sxAhQoUqhYUBotB9RNkMTSusWkN6dFMcxj4iMxZTX7JP1tsUDTN/UlA+JjbvLAGgtMvdxe3AxbfwA2vSWEQKwBARJ1EyeB/d9ImGRTcbZXFq2BxVqtf5lD4XOxvFwrGYEuklDJAt4KM0EgqUwUMnAi7gi2HN6ATftXyb+/ISk10fjo/cx3liWWSBOCmSo/fKbCgiJxcekGqF3ualSNknL2wVEI9LfKXReUphaEgjJT+fw6yagZycCwsYxtZaOeiPMkCPId6S9hjpXpYhDXw2EhCLQgsDl5EhjFUOuLntj+jFgQtktcOklAgL8cJ/UY4hLS5zkQusCMimUHWBaEuKUeBMEWIwbVrIDSJAhdPkQqLQh2yKVDIMovl1K+2nKMQEETKZ4xDwKfww0SWfC37P7vEm2Mpzhro+R7+FWEi/dSVyDWMVobZkm0AkMdW0uwfXIC8IW4KepLTg26HzjW0gFSzVFIQEiUEIHngCvFKsExWbvhG+nbdoWVZKmAt8JKEE7GH8O8zd9i1e5ZYqRMQJB/MGqUuhIXlqyHCsWrm0XfX6wGFkFIM+QgRcp7H4s7hN3Ht2HzoTX49/hGeS8FIVIavNmF9+KqKjfJ72FZ5+HIR8+CEoR8NBmF9VJWCEEwFgS5QVcUgyRKqtpLyjNLFMPh75dZYY52VkR2LCoWhFpf9MI2ESOyoJPZdzmpmu1ICMuFYNkRKFAsN+BenPxxJWKFIFhhjO5ESEVrVkTpYffhQJcPLBdDhmyMFZa/WljhP6/39eWXX+LeezPx1Z/Xs57nwaN3SxRCNcltIEmMnJTJXOy/liqOF4l1ob4tRGS/7yQN8x0LgdJ1rItaKURzx2QhF5JkiUQgQTIubpNsjFukPkPRcCn6JOWi+T5LQC8XV0RHSagUlMH9cJ5v73wMX9gIAhfGpSJcnvb7mwgJikDrOk8JMbgMxYoWNy6EnLREIY7R8Uexfu8SzNj4voxXDE82HI4qUTXzPUlQgpCTmda+Z4WARRAoWXYv2MykWK13O6NNOEQLgu1iMFUWpQVJFMPFX/bGtmeFIEiEgglb5IIv39NFJPbJuAbS5LW/FfXAzIrlBnREtNR1MC4Gm4yY8eQn6KIKKDvsfhx4/gOp5njCcmWY67FIS8UVShDOanIL60EzJHG/n2gMWnxpKWd3CAmYfZvkNtgBhJWx7nqxpAE8JFaGtnPlAbQXDVoGvpAQyJslj3B1qQTptMUvAbFCBkgQkiXu7guJu6sjx18lYshC0AobQdhx9C+MWdgJ913ZF1dWaoogiTbxRotNPIU5f3+Jxdu/Q7+bJ6JkWFlvDHvexlCCcN6g1YEdBJY37IG47XutEst2GCMTJVW1CcJhCWU0GgSHQHBBl1TLtSf3xalVW3B87jqkSP2EYg1r4cSctSh+8xVI3n8MCTsOoHizy3BcEi2FMx/CXY1wcOw0y8XgsfiTCgTVqoAywx4QgvC+5WLwtELIZVX6VfLia8sxAsxzwWiVQtf2iC7mZxErMt1yZHVxB1wpCY2kPsPVds4Clm7+WlwDtwtx8CzvTEvDCnEr7BZdRvul7joOngRhk7gqVoi74d5/3FUiCziAhY0gLJAw1R82vosRd0w3gkNvNrofXpn9IJ66diRqlZEomHzclCDk48kpLJe2rGF3S4PgFE+SG/MTglCtd3tjQTj8nRAEE8XgyA6ZKCkStb99Ecckr0H0L38i5XgswupVQYyUcg6/piaSJZdB0r5jCL/qIpxa/AfC6l+Ikg81w6G3f0LcEluDYEiApWsIqlVRLAgPYL9kZnQRBNulQWJSeZUShLN53gqaBiHb98hwxwXPS2lwSbd8o0QuTBWCECCWA1Gmm5YqyZBCJbSxgxAJz90lCcLxHZJGWZIuBZU3RNW0ZBEsVpHIiKuEPEyRctFXvyY6hQfTaxyyfXH5r2NhIwh/iRDx7WU9UTXyEjSreS8uKdsAwRkjUXI4DSfjj4ubYTFm/jUR0QmH0LfZRFQk+czHTQlCPp6cwnJpJAix4mIw+Q+YatmEOQaiem8priQE4eDkpVaYo4dmgJkUL/mqD7Y8Nd6EQhrxokceBcddYYkaZTxxMVQcfB9O/EANgviO6YqgsJHnkxZMgjD8QezrTIJAF4NzLVaYY5VVErqmLccIsP7GN998k+PjCsQBjEJg6GKUkIPakgTJWeydiy8luoNw292Q8YYOSQpm1mrwbMElxC0hERDFpPbCreKCKEStsBGEw6f2YfDse1Cr9NXYdfwvJIlAsXbZ64Qo1EeZYlVRLChKtAThRrQYKO4lloy3RIop0jdJQiDjECfuhJMJR7H7xDb8sW8FtgnZLB5cBlUia+P3/Ysw/LbpInLMuqAXk80xJDc4OBj16tUzAnAKwRmeyyixGjXETXWemxKE8wywDi9C7mu6CkGwwxz5NSuLM6MYqr/QAbFb9loEwREp2iQgqGwJ1PmmDzY/MV6yLVLgSIJgaw9s3YAlV7DeCyBBGHI/Tkz/FTFCEMxn1CiQCFD0WKsSyo14EHs7T7AsCLwOx4Igfar+Jjs6bYpARgToSmAYY2kJU7zpXbEKiNAwp41WBZKFH5vLg1ha3Baz05eQzul4+bB/YSMIjF4YMPMuvHDTBygTVhkb9i3Fsh0/4uCpHYhPirXyH6Ql/edMMA9C0YAQsTyECSmogyYXtMEFQipX/7sAX6wZidfbzDIhkpk1Zty94oorcNFFF+HIkSOGHCxbtsy489asWWPe69OnDx577LHzKnRUgpAP/9gK2yUtaUCCIBYEDwsANQhVnr8DJW64FAcmL8Hx+RuQfPyUVGaUhOzSgspHoe7XfbH5SVoQJMyRVMAWHFr6Afu1TTgCJMzREAQpHX1qiRAE+bvzk/S5/lLlMeSKC0wGxsAKJbGvh4Q5SopmzzoMHK/a6tcLG+y5cj/c5ZQuLYteYW1c3E9KtMKPzeRf+tmDAAAa90lEQVQOJdrgpolCFqQImZ+7Wul/3jpDH3fMApY8I6WjxbVw8yfycBecxFLZndbCRhDikmIwUAjC09e9KtELVslvLpYpkguD+Q/4L/uQSMQmnZQQSIssUMwYFhiBiJASxrrg7xdoLAz+Hs/LtN/flzwK69CrqeTMyKLRKjdlyhR89NFHxlpwzz33mN/HjRuH3r17Y+7cuZg4cSImT56cp8mYNFFSdv9CtF+WCJAgxGzZYwkDXToE0QVItsTSt16F4vVrILhyGST8ewgnpABTzPrt4uJNRJ3Pe2PTE+OQIFEMnqWircQkZAa2G8G4GEJRWQjCccmDkLB5D0LrVDEpmoNrV0ZqdBwSJPNijGRYTNy824qEMBYJ598iqL56jM7gWSDQvHlzzJ4tO+LC3hiuuEz0AzukFHQpScXcYJDUCJc8BrII2A+1hQAJhZiZIYsHdi8BVouoMUYIxlXiwqp9f3q9QiHCrLARhCRJZDXw57vRru5zuKqqRzRKJnNG4kAXBCOjAoQQZFXYyCEZby99ASVEv3LvlVmLe5mh9I477sDBgwfRuHFjkxK8Zk0rLHLMmDEYNWqUIQj8+/uv853rI6YWhHNFUI8/IwK/1O+C2G1WZRZHg8A/JkYXsPmHBiGoVHEUv+ZilGl3LYIrlhJrQgxCJLnRxg7DrUqQdtSBGcP8brsbnDwIYkGoPOIRqdMQCv+IUKQlJuPk3PU4tfAPJB+URDax/AO29AZuYmGHXcr71dcoQTjjRGbSodCKFDMDg4v/sW2SO5y5Dj6W5EdS/SdUwtQixQURKr+nSabFaKkkGi1ZFWPFpZAUDVwqaZTriO6A4WyWT6xQtoJEELj4LliwALfddluWu28ujEPnPITLKtyANnWpP3E3Jj1KFgJRNDDEvLk/ehfeWtITxUNKotv14/8zTwItDyPnPSbuhna4vkbb/3wWmL6etU5WrVqFTp06mYJeJUuWNO4Fuhn69euH5cuXg4XGzldTgnC+kNVxXQgsrv+80Rp4JkJiiLnRD5gFX/41rjjRC0iOg5Dq5eQ792KE1q6CPWOnGteDZwikMR5kJAnyR1JSwhwDiocjZtVmqdWwS9wVqTaZsL6YM7ooLH2ClSehxtqxOmNngcCSJUvMDsfnWsxByYGwQX5WCmnYIsWZpAR0EXmoQ0W0WFIiGEpLjQWKGIsW8wloChJBoH+fu3Om3abJvlEjcf1k0iatGomYxBPo1Midhp2plCeuGiYZElfjpZs/RZjM78qdc/Dp6qFmhCsqNMPtdZ5A2WKVMh0zQUqBD5v7sORX6IOLRfCYWeOiPGTIEFP8ivUt2Nq3b28IwciRI42rgWLFunXrYseOHZlmr/XWQ6cEwVtI6jhZIrDoyufExWDlQSBJcHIUuEmCLSa0SYIlIPSDv1RrTItPShfd4GRAdBZ8Y0kwbgv5ESFPEYanyX9OdAM/sH6nH8JOruQiBnY/oR811v9PZ1ARUATOEoGCRBB4i1x8P/nkE1OPg2Z6VqCtXj19yOEvUlvj578/wbDbpSCX3XYd24w3FneRr5g0NL3wHrQS61CCJL6a8/cXZrPD1Mo7jv2JeuWboEn1O3FR6cvSWSlOJZzAMLFMPHbNEPNZVo3angceeADHjx83GgTqfFght3///vjtNwn9jo7Ggw8+aESL59PFcKbHQTUIZ0JIPz8jAguFINCCYBZ1yXxoLAWOBsARHprX9o6ePYw7wLEUZPjM7pvOkuCQBJMgyXIlmKFZdIfntcmJZUtwohvsPvLZhevHnfE+tMPpCLz88ssYOtTaPWnzXQRIEGgGf/55yR1RgBrdDa+99pohDAMGDEDnzp1RrJhl9dl1dDNGL3wCr7WaZdwJTJn82oJnxDpQFVdXaYn3V/RF35s+RvmIaq475o5708G1WLjta/x98DdUjLhQXAntULdcQ4RLSOPx2EMYNKsjo7DR4dJuaHSBuDloecqkcaxTp0S4LS083B09Q9IQJNVwQ0NDzzs5UAtCAXqYC+qlLriis+VisH2wnvkJ3MJFy92QLsOheW1EBqflQcjUkmB5C+wxiJboHFxWCw8Xg6clwc6TUHPDGwUV3jy9bp/SIOQp0vn75Lt27TJhdzTbF6RGgrBw4UJzyczp8fbbb5uFly1Zii51n3ozXm7+JcqEV8AKiUb5bsM4DGj+BUKlnsK4xV3/396ZAGdZnHH8qaBcIpFDbqF4cM1wKBCgjkYBAUEEOiiXHFVkyjBgxdJiwMCopQwyMBzlHioIhREiRIhxFBSQKWAtNxbkkMqN3EICVNv9PcmGz5jkCyE0b748yzDwfd/77rv73313//s8u//HBV0q7RQR33SnFH4+yX936bis2jXXEYYv3EmHCxJ971NSs2w9iXd5tHqgt3zy9QJpW6eftHFCTPlpBciuvYwgFKTeXEDLuqbRIHUxpPv8mbrTRJG8u8Gv9tMcEBpjIXWKD7EI+GOSIQqI6ccVQ3QSUgkFd6paUupzU79MJw+hexogEQ/uMIKQm+6Fb3TZsusm2NzkEYR7GAj5G7oZNmO5iFia3e9cTx5MkplFNQ1CPa0MqQjQRmz0w71Qo0YNWbFihdSsWfNn8AxP6OgIwFgXubGWxCZ2lpK3l5H7K7gAXS5dcu6CPac2yoDosdKg6vV9DPSBK04nAdGkYkVL6li05fB6Wbl7lpy5fEx+cPoJVe560J18SFaCMezxv2Sph5Df7WUEIb9boBA8f03D3ypB0P0AaSt2nbB18k61EugWAXUTpLoErqsqhrgavGvBH0/0roS0fQ0q0hhqcUg9sKDH0DR/784I/X8aAamzc0ohaIm8ryKbpfCR5nfCRJyUlCTt27fP1eRMPWJiYmTevHly//2Zh19u1aqV+q2rV6+eZXVjY2Nl1apVMnv2bGnatOkNw0I5WNVi5k5OTpZZs2bJ0KFDA7vCvOEKBuCGs2fPSpcuXVSlkA1/jz/ugjE5k31maXRSd7fP4CWnoNhMFm+dpMcZM6bWD3RXASQlHk4PIWHXHLdxMVHdCLgjftMsTqJKVpAf3emHRe601NEL+91mxhi55KwKTaq3kqqOfGS0IKSkpKS7F25zA2NUVFSO9A6Y0HFB3H23Cy+eTaKfkW84y4URhAB02EgvwtpHXpFLPtxzupxy2j6BEFKgBMFP9mnHEXXVz56Fn5ABnfPTzkBc30fgNzcqDwjZp5AeJtrvS0izKqQrKboGeHCjSS3nph+uW7dOHn300dzcmqf3nDlzRo+A8a8fHFnxX7vmNrm69mZF760EfM//+Y7fPcHhnPkHH3ygErb8xgDqLQIUtkGDBpKYmCj33nuv3sfxMu71gyyDLuRi8+bNUqZMGb2f30OtE6Fl4BncS3lY0XLtV199JS+//LJ8+OGH+gzCaffv31+x8mX1efIdz/R1CTfY5yngBTgzNvitXLlSOnTooO2UXRq3+gUXzbGVtKndM0c1XrN3qST9a570aTrKySqXk6XbJrv2+VF+FzNV73/7s0HyQLlG0rnBwGzzW7BggcTFxWlfPn/+vJKYGTNmhCXjV65cEYgsp4uySikpyTJkyFCZOXOmEYQctapdZAgYArlCICh7EDIjCEy0WBVYHTIhsOFrzJgxsnfvXp2QGUhRpGP3+pIlS1TvvmzZsnLx4kVp27atHoFD3nbQoEGKDSvOnTt3ysCBA/V4WcWKFTVfP8kwkb/77ruaz7hx42TatGny3nvvyZYtW2T16tXSsmVLmTRpkuCvZyBfuHCh1K1bV1566SXdmR4dHa1n3jnv3qhRI72XjX8JCQmqnsezIEGo7B07dkzLt2vXLq0LFotmzZrlqg3tpqwRmLL+FSnvNC56PDxML8J1cOC73c46gH0gNaGcWKPcg6quGLuqi7Sr019iHuiqv512EtujP+omr7dZ7MSR7pFRSb92ugqDJbqGixSaTZozZ472U/oRBKFatWpy+PBh2bBhg7Rpk3rvmjVr1EVCX6D/Pv3000pemzRpIjt27NC+ypFO+h2/QzC7d++ufYy+itAS7292ySwI9nYYAoZArhEIMkE4deqkm7yjdHBksOzWrZueK8dNwITLZItL4KGHHtKBt0WLFjJ9+nRp2LChno33q0wGUq6pX7++DsolSpTQe4cNG6YuDf6ScA3Url1brQAM5p06dZLdu3fL+vXrdZ9Gu3btdBMc8rj8xQcOSSF/vicoD+UYMWKErgBxmzDpL1q0SEkKVgV85Uwe48ePlylTpui9nCKBJKCuZ1aEXHflTG+M3zZdvj2/V4Y+mqqT8vn+BFmy7W1ni/RuNajCf2VCp4+kyC+Kyh9WPa2nE5rXbKvXE8HxtcROEtvqXRVSivvoWRn0q7fdZkWnwhmGIODuat26tRw6dEgnevoxfZT+hHWK32j/Z555RkaPHi1vvfWW9o0BAwYosaBfQCbpO7i7ypcvr32ao53EcKBfhSOVRhDytj9ZboZAoUKA1W5WPvv/JxCZWRAQm2GFjT+X1T4rdXz6mFaZhKtWrarH8lhxsW+AlRb/1qlTR7p27So9e/ZUIvHll1+qZYHVPqt5xGouX76sAzdWCna/+8SGN75n9YcJOyNBYJDHyoACHv5vVnwcYeM8O4kd9cjq8kx85QzsHL/DlTN37lzZtm2bKgCSB1r9kydPVnIBKeH/RhDyttdtciJICTtnOi2Epant8/Uy+fzg+xLbZr7ud0JF8a1Pest4dxSyuDsKuXzHHPnHt0nSv9kYKV0sym1MnCNHzu2TkU/OlwtOTOtPn/SRYTEzXURIp7wZhiBAKiG1x48f137Lyh9CGUoQ6H+0PX0d7QTcTw8//LD+n6OnbLzEotWvXz8lFZBj+hgWBFxh4fqLEYS87U+WmyFQqBBg8mXlm9/JEwRcAnfddZfuD3jsscfUdM+kvnXr1hwRBCZjFOoYmFnFs0rjO6LqYRGAXOAbJk8GZQbszAjCwYMHdW8GgzT7GnArYEHISBA4BYKWBKvFUqVKyYkTJ6Rv375qLWCjYvPmzSX+/Xjp3au3rvggMMS+YMWIFcIIwq3teYedtPa4T/s7ApDkCEDJsAQBF8SCL/7kwjlvcKcY/iMV76wpvZvEOotBbTn1/VGnozBQXmv9jrMmuNDfYQiCdzEwSWOlGjVqpHM5DVKZaNwOEFiIJcQBLQdIJ32IvkufwsXlrQ70GVxtWKhwS3Tu3NkIwq3tOpa7IWAIBMXFwMazJ54g4mJqwiXAip8VEwMiLgF2rjOpIlk7depUtSowuTMhEwDnhRde0N3ikAkGXr4/cOCA9OnTR90KxYoV05UcxADiwaANCfA+YZ6LuRc3ACZ/TL2s+Hv16qWfsVAwUGP6xeWxfPlyNfeSH/e0bddW4l6PU5MwexwgBAj3cB2DPeSEExTUYc+ePbp/4tVXX1X3BYQEl0e4FaH12BtDgFMLw1Y8KX984h2pElVTCcK6g8tkRKu/6kboEy7S55/X9E23IPjcr1xL0RMPdxa/vglyn5Pmnrt5lMQ5XQXIRjiCMHHiRLUG4F6ALOCSglDWqlVLrVSQBDax0v+wCGBhwoVAn2YPAv2Zjbf0tZMnTzjLWF21RuCWYCPuG2++If379c+2z5gF4cb6i11tCBgCIQgEhSBk1ih+cOO3nE6cmQ2IGb8LN2j6stzI80PzzCr/nOgwWOfMewRiV3WV5xr/XhpUaSFr970vS7dP1KiNJLYq/uAElbyLIbunf/p1vHy2b4nEtftbWN0DCCWbCn3CIsZfvieAU+XKldVlgFWAvSoQWdxbEFk2wGLV44SL1+SATJCwruGGgFDTn9hgGy76ZHbvj0kt531/sxwNgYhBANMmq1hLhkCkIjB+9UCpX6WltK3dS5KvXnLiSP/Uo6U+oapYt2KTbCdawkfP3vi63HFbMXmxxZgCA1U4MmwEocA0pRXUEDAEDAFDIK8R+Ps3SfLe1glSLaq2xNzXTepVaiq3F7kjVeAtTWgto9UI7QP+JF/9Xr789jO3sTFeziafcnoI06Ramfvyuoi3LD8jCLcMWsvYEIh8BCZMmKC+b0uGQKQiwCR5+Px+Wbd/uXzx7w9VAbZsiYp6SqH47aVUTvmOIsX1uOPVH1Ik5dolJQYXrpyRcyknpWSR0tKy1jPSsmYHKVeqUo7dXQUBT7MgFIRWsjIaAvmEQJD3IOQTJPbYCEbgqtt4ePz8ITl28Rs5ffmoXEg+LZcdGbj241Wt9R1FimkgpyineVCuVDWpXPqXTm65uhQtUrRAomIWhALZbFZoQyAYCKA4yFE+S4ZAYUIgdA9CVvXO6cbYIONmBCHIrZOPZWMHLVKunLWtUqVKvpSEXbYcyalbr640j26uZeAoD8d+0LHnnHvjxo31GBjiNvXq1UsvJ4Fu4uPj9YgPx904klahQoWf1IPOf+TIEf2eI2yWbhwB2ojd1JYMAUMg8hAwghB5bZonNeK8NmpynAXnzDgdheM0TAj8y3EZtO05MkP8dI7U8BnWjMALnzluQ+I7jt/4aziCw2eO4JAvYjtcg8hHKOtGupaJv1KlSrJx40Z9FjK4iMocPXpUz5ejOMcuesRB+EyifJwVRpt88ODBqmbnCQRlpBycd+dfzq1zDp1APBwj4nfKRB28CBCfqYuvgw+s4+uPEh7X8juJ/0NgyC/S0+nTp1VjwJIhYAgUPgRsD0Lha3OdICEGKL+hIrd9+3Y9N8uKnd9QrUPAwwe9QTQGSVokQJkcx44dqwSCiZvJlMQ1iHwg8MHkSRAdJELZ5MYqHllZ1ONCtcExXaNmhyAMAjVIhkIQUANjMubcL1rjaNCHEgTKxYRP0B0fqQ/igbQtWvyUaciQIfpcxGfQKEeTnzPFkAWIA9+TL8F1qDtBcyAjlANChKIdIjiQGPTPEbdB0Yzoa+il+0A8kd59ECciPoElQ8AQiDwEzIIQeW160zVi0kOfngmvR48eqjyHpjcTH9r2BLRhckfdDQUvotth6mfiReoWBTi04ll1o0KHXC1mfL4njCnqdsjPojTH9WjboxjH5O8j5zFJ4zIgoh3EAasA8qFcAznBgkBZmKQJPBJKEDZ/sVkGvDhAo+hBBDZt2qRRzJjkcT2gJkZd0CunbAS9IaIfErsQF55NOVDJK1e+nKQkp2h5Fy5aKM92e1ZV77B2cB16+EyQSOJSRvBCsc9bPG66MQKegW1SDHgDWfEMgZtAwAjCTYAXqbeyIkZqlkmTSZTJn3CyMTExGvKWVfT2Hdtl6pSpOrGj683Ejy8a6wCqXWiAIxW6f/9+XYUzCWN5YAWP+wLLxPDhw3WPAP+HhLDXAZcAiWh4uAnQwIdoYA3gO4gL5WOCxoLAap4JOZQgIENLmc+dO6f3YTlA4578CLvLv0jrMqETZx3CgxWBvQpI32JJuOeeezSiH0SBZ0CECHKCVQPihDsDawHPgBihiY9LgwA9WEHQ7S8MCXIEhrieSH4/gv/Md1hx+OwHm4zXYN3hL79ndw33Qcp8Il+u98/K+Jk8uSfcszNekzEfficv/2yfb+izs7omu2f7e/w1HgfqF4on34e7JvSezOqdWZ24x2Oe02dT5sww9/mE1sm3k3cbhk42vk7+Gp9vVqqVvm+F9quc5JuTa8I9O7P+6b/z5cn42Zc3tE9nVZacXnMj44l/n7K7JyfXZGzDjPmZi+FGWiVCrmXAHzlypMYKx8f8yCOP6Aoaf31mBIHockOHDlWLAitnVvZMqKzs58+fr+4AfP7cD1mAbGAdYCLNiiAQoY6VPuXgJWSTIZM3pAIXA35/P8BlJAi4OXAxUP7uPbpLwooE3YRI5EHcHORH2SAITOrsxOcvq//nn39eXSm4FSBE1B0fO3Vr1KiRloFz/5An6sZGSKRPsXR07NhRXSlYVyAchSVBInG5kIh7QIwDrCyQMyImYqUhVoCPQsfeFkgYAY+wVqEXT18AN6w+kExIJ+0EviQsPmCOu4nnEV2RNjt58qQGr2GQxUrEJA4Bpf0gkFh2IKm4h0i0Ef2ReAYMkDybvkKgG1xOfEcfweUF+eEzMRTYB8NnCCHWMPoW16xdu1av4Z3Brfbxxx9rnWh/+g7vC3tguIY+DJnkGhIkltgKWNEgz9xPvtwPGWXiot4QUVxt1Il6R0dHqwUN6xnX8Bz6N+UDByJE8n6hx8914IkriD0zvJ/gyrMpI3En2PTL+0QbEKUSixvl5RqeR7uxaZl3mBgXuAmR9iVRb94j8gV79vogA4yb79ixYyr5S75cQ/RAykfYbN4p2oTn0ReoEySe+/yzqRNlIZEnxJ5+RJ24B0siiXeOZ9M/aCcwZ9xiDxDl5RmMSSTaGzyJa0BbUG+w4tkE1AJPrJQk8CNf+jDP57nUCTy5h/zJh0Rfo060NQsaykc96SOMD9QJbMgf7Hg2eJIv15z6zkVivK2I5sM1YExCCpk2oI2wfvIb99Ae9BkS+YAzn2lbysd3YE5f4tn0Lf7lM23ANdxDPpSF38Cb3/jMc/xffUgWyQhCduhE6G/43pnw/c7+GTNm6CCfmJioJnteSF4oVssEB+FlYXWPuZ3wtLw4WAP8QEg+3MdnBjHCA7MyZ8ImHyZiVva8rAwUJAhCz149JapMlH7mXjov9xCExJeN7xYvXqwvIwO9T7wclJvJgZflueee05Us1gQClUA+cFkwyC5dtlSeav+UDtY8lxeEukEUmMR42Zn4cIUQMpiBFbcHdWFfBGVhciJwCt9DHCwZAoaAIRDpCBhBiPQWzqP6hZ4LDj2JkDH7cD6tPCqOZpNZmbIyYWZm/gtXFvLy92FBGDdunO69YKVgyRAwBAyBSEfACEKkt7DVL08QwMSKiRHrSHYEKU8eZpkYAoaAIRAABIwgBKARrAiGgCFgCBgChkDQEDCCELQWsfIYAoaAIWAIGAIBQMAIQgAawYpgCBgChoAhYAgEDQEjCEFrESuPIWAIGAKGgCEQAASMIASgEawIhoAhYAgYAoZA0BAwghC0FrHyGAKGgCFgCBgCAUDACEIAGsGKYAgYAoaAIWAIBA0BIwhBaxErjyFgCBgChoAhEAAEjCAEoBGsCIaAIWAIGAKGQNAQMIIQtBax8hgChoAhYAgYAgFAwAhCABrBimAIGAKGgCFgCAQNASMIQWsRK48hYAgYAoaAIRAABIwgBKARrAiGgCFgCBgChkDQEDCCELQWsfIYAoaAIWAIGAIBQMAIQgAawYpgCBgChoAhYAgEDYH/ASo4yz1Mnt6rAAAAAElFTkSuQmCC;" vertex="1" parent="1">
          <mxGeometry x="70" y="90" width="520" height="230" as="geometry" />
        </mxCell>
        <mxCell id="Hd83eVn2M9fP15iX-xxs-3" value="Text" style="text;strokeColor=none;align=center;fillColor=none;html=1;verticalAlign=middle;whiteSpace=wrap;rounded=0;" vertex="1" parent="1">
          <mxGeometry x="390" y="290" width="60" height="30" as="geometry" />
        </mxCell>
      </root>
    </mxGraphModel>
  </diagram>
</mxfile>
